<svg xmlns="http://www.w3.org/2000/svg" viewBox="0 0 48 48">
  <path fill="#1877f2" d="M44,24c0,-11.046 -8.954,-20 -20,-20c-11.046,0 -20,8.954 -20,20c0,10.018 7.379,18.313 17,19.76l0,-13.76l-5,0l0,-6l5,0l0,-4.5c0,-4.97 2.967,-7.5 7.3,-7.5c2.164,0 4.2,0.387 4.2,0.387l0,4.613l-2.367,0c-2.335,0 -3.133,1.45 -3.133,2.937l0,3.563l5.338,0l-0.854,6l-4.484,0l0,13.76c9.621,-1.447 17,-9.742 17,-19.76Z"/>
  <path fill="#ffffff" d="M33.434,30l0.854,-6l-5.338,0l0,-3.563c0,-1.487 0.798,-2.937 3.133,-2.937l2.367,0l0,-4.613c0,0 -2.036,-0.387 -4.2,-0.387c-4.333,0 -7.3,2.53 -7.3,7.5l0,4.5l-5,0l0,6l5,0l0,13.76c1.014,0.153 2.047,0.24 3.1,0.24c1.053,0 2.086,-0.087 3.1,-0.24l0,-13.76l4.484,0Z"/>
</svg>