<svg xmlns="http://www.w3.org/2000/svg" viewBox="0 0 48 48">
  <path fill="#24292e" d="M24,4C12.954,4,4,12.954,4,24c0,8.887,5.801,16.411,13.82,19.016h12.36C38.199,40.411,44,32.887,44,24
    C44,12.954,35.046,4,24,4z M35.5,35.5c-1.149,1.149-2.45,2.055-3.9,2.716c-0.367,0.168-0.766,0.3-1.2,0.399
    C29.799,38.87,29.2,39,28.6,39h-9.2c-0.6,0-1.199-0.13-1.8-0.385c-0.433-0.099-0.833-0.231-1.2-0.399
    c-1.45-0.661-2.751-1.567-3.9-2.716c-2.299-2.299-3.5-5.1-3.5-8.5c0-2.499,0.701-4.9,2.1-7.2c0.399-0.666,0.85-1.283,1.35-1.85
    c0.166-0.2,0.35-0.4,0.55-0.6c0.199-0.201,0.383-0.385,0.55-0.551c0.133-0.131,0.25-0.265,0.35-0.399
    C13.301,15.5,13.101,14.5,13,13.5c-0.101-1.033,0.133-2.116,0.7-3.25l0.15-0.301h0.15c0.1,0,0.3,0,0.6,0.051
    c0.333,0.032,0.75,0.15,1.25,0.35s1.116,0.5,1.85,0.9c0.732,0.399,1.332,0.75,1.8,1.05l0.75,0.45
    C21.45,12.25,22.7,12,24,12c1.3,0,2.55,0.25,3.75,0.75l0.75-0.45c0.467-0.3,1.068-0.65,1.8-1.05c0.733-0.4,1.35-0.7,1.85-0.9
    s0.917-0.317,1.25-0.35c0.3-0.051,0.5-0.051,0.6-0.051h0.15l0.15,0.301c0.567,1.134,0.8,2.217,0.7,3.25
    c-0.101,1-0.301,2-0.601,2.899c0.101,0.135,0.217,0.269,0.35,0.4c0.167,0.166,0.351,0.35,0.55,0.55c0.2,0.2,0.384,0.4,0.55,0.6
    c0.5,0.567,0.95,1.184,1.35,1.85c1.399,2.3,2.101,4.701,2.101,7.2C39,30.4,37.799,33.201,35.5,35.5z"/>
</svg>